<svg width="21" height="21" viewBox="0 0 21 21" fill="none" xmlns="http://www.w3.org/2000/svg">
<g clip-path="url(#clip0_4_2)">
<path d="M17.5119 3.48768C15.7178 1.69314 13.2382 0.583344 10.5004 0.583344C7.76178 0.583344 5.28263 1.69314 3.4881 3.48768C1.69312 5.28222 0.583328 7.76172 0.583328 10.5C0.583328 13.2383 1.69312 15.7178 3.48765 17.5123C5.28218 19.3072 7.76167 20.4167 10.5004 20.4167C13.2387 20.4167 15.7183 19.3064 17.5123 17.5123C19.3069 15.7175 20.4167 13.2383 20.4167 10.5C20.4167 7.76172 19.3063 5.28222 17.5119 3.48768ZM17.1846 17.1846C15.474 18.8952 13.1105 19.9535 10.5001 19.9535C7.88959 19.9535 5.52561 18.8954 3.81501 17.1846C2.1043 15.474 1.04606 13.1106 1.04606 10.5C1.04606 7.88942 2.1043 5.526 3.8149 3.81527C5.5255 2.10466 7.88903 1.04642 10.4996 1.04642C13.1102 1.04642 15.4736 2.10466 17.1842 3.81527C18.8948 5.52588 19.953 7.88942 19.953 10.5C19.9534 13.1106 18.8952 15.474 17.1846 17.1846Z" fill="black"/>
<path d="M19.0307 10.4173C18.9862 5.7437 15.1844 1.96872 10.5004 1.96872C5.81598 1.96872 2.01383 5.74404 1.97006 10.4178L5.88175 6.50606L7.19358 7.81789L4.33099 10.6805H16.6698L13.8072 7.81789L15.119 6.50606L19.0307 10.4173ZM10.4999 8.95138L6.86508 5.13714H9.28061V3.25709C9.28061 2.76909 9.82931 2.36907 10.4999 2.36907C11.1706 2.36907 11.7193 2.76864 11.7193 3.25709V5.13714H14.1348L10.4999 8.95138Z" fill="black"/>
<path d="M11.5602 14.6403C11.3664 14.5143 11.1209 14.401 10.8247 14.3028C10.5983 14.2247 10.4119 14.1511 10.2664 14.0801C10.1223 14.0098 10.0157 13.9317 9.94741 13.8495C9.87758 13.7657 9.84487 13.6652 9.84487 13.55C9.84487 13.4578 9.87251 13.3703 9.93207 13.2871C9.99039 13.2045 10.0816 13.1355 10.2056 13.0834C10.3308 13.0305 10.4903 13.002 10.6882 13.0012C10.8477 13.002 10.9931 13.0148 11.125 13.0375C11.2552 13.0611 11.3705 13.0895 11.4692 13.1222C11.5691 13.1561 11.6501 13.1879 11.7137 13.2181L11.9339 12.5541C11.8008 12.4871 11.634 12.4318 11.4315 12.3867C11.2596 12.3487 11.063 12.3268 10.8394 12.3194V11.6323H10.2341V12.3537C10.1369 12.3693 10.044 12.3904 9.95598 12.416C9.7333 12.4817 9.54198 12.5731 9.38371 12.6921C9.22669 12.8106 9.10519 12.9495 9.02172 13.1086C8.9379 13.2676 8.8965 13.4428 8.89492 13.6313C8.89616 13.8495 8.95313 14.0416 9.06594 14.2078C9.17874 14.3739 9.33949 14.5181 9.54695 14.6416C9.75349 14.7647 10.0002 14.871 10.2853 14.9602C10.4993 15.0288 10.6737 15.1003 10.8067 15.1738C10.9398 15.2469 11.0372 15.3276 11.0979 15.4156C11.16 15.5036 11.1904 15.6057 11.1893 15.7197C11.1893 15.8449 11.1525 15.9536 11.0807 16.0474C11.0096 16.1399 10.9047 16.2127 10.7666 16.2644C10.6286 16.3165 10.46 16.3421 10.2625 16.3437C10.1017 16.3424 9.94594 16.3288 9.79388 16.3027C9.64306 16.2754 9.50137 16.2403 9.37074 16.1966C9.23887 16.1528 9.12369 16.1052 9.02364 16.0519L8.81088 16.7437C8.90711 16.7966 9.02736 16.8441 9.17446 16.8878C9.32156 16.9321 9.48355 16.9671 9.66077 16.994C9.83675 17.0201 10.0178 17.0333 10.2017 17.0349L10.2339 17.0345V17.7447H10.8393V16.9774C10.9161 16.9625 10.9893 16.9448 11.0587 16.9242C11.3017 16.8511 11.5032 16.7515 11.6627 16.6238C11.8235 16.4973 11.9425 16.3507 12.0214 16.1854C12.0999 16.0201 12.1391 15.8453 12.1391 15.659C12.1391 15.4409 12.0924 15.2478 11.9962 15.0818C11.8994 14.9138 11.7548 14.7671 11.5602 14.6403Z" fill="black"/>
</g>
<defs>
<clipPath id="clip0_4_2">
<rect width="21" height="21" rx="10.5" fill="white"/>
</clipPath>
</defs>
</svg>
