<svg xmlns="http://www.w3.org/2000/svg" fill="none" viewBox="-0.75 -0.75 16 16" stroke="currentColor" aria-hidden="true" height="1em" width="1em"><desc>Squares Plus Streamline Icon: https://streamlinehq.com</desc><path stroke-linecap="round" stroke-linejoin="round" d="M8.434166666666666 11.098541666666666H11.098541666666666M11.098541666666666 11.098541666666666H13.762916666666667M11.098541666666666 11.098541666666666V8.434166666666666M11.098541666666666 11.098541666666666V13.762916666666667M2.513333333333333 6.065833333333332H4.289583333333333C5.270568749999999 6.065833333333332 6.065833333333332 5.270568749999999 6.065833333333332 4.289583333333333V2.513333333333333C6.065833333333332 1.5323479166666667 5.270568749999999 0.73714375 4.289583333333333 0.7370833333333333H2.513333333333333C1.5322874999999998 0.7370229166666666 0.7370833333333333 1.5322874999999998 0.7370833333333333 2.513333333333333V4.289583333333333C0.7370833333333333 5.270629166666667 1.5322874999999998 6.06589375 2.513333333333333 6.065833333333332ZM2.513333333333333 13.762916666666667H4.289583333333333C5.270629166666667 13.762977083333332 6.065833333333332 12.9677125 6.065833333333332 11.986666666666666V10.210416666666665C6.065833333333332 9.22943125 5.270568749999999 8.434166666666666 4.289583333333333 8.434166666666666H2.513333333333333C1.5323479166666667 8.434166666666666 0.7370833333333333 9.22943125 0.7370833333333333 10.210416666666665V11.986666666666666C0.7370833333333333 12.9677125 1.5322874999999998 13.762977083333332 2.513333333333333 13.762916666666667ZM10.210416666666665 6.065833333333332H11.986666666666666C12.967652083333332 6.065833333333332 13.762916666666667 5.270568749999999 13.762916666666667 4.289583333333333V2.513333333333333C13.762916666666667 1.5322874999999998 12.9677125 0.7370229166666666 11.986666666666666 0.7370833333333333H10.210416666666665C9.229370833333332 0.7370229166666666 8.434166666666666 1.5322874999999998 8.434166666666666 2.513333333333333V4.289583333333333C8.434166666666666 5.270629166666667 9.229370833333332 6.06589375 10.210416666666665 6.065833333333332Z" stroke-width="1.5"></path></svg>